<svg xmlns="http://www.w3.org/2000/svg" viewBox="0 0 64 64" width="64" height="64" role="img" aria-label="Lernvo"><defs><mask id="a"><rect width="64" height="64" fill="#000"/><g fill="#fff"><path d="M25 11h14a5 5 0 0 1 5 5v4h-5.5v-2.5a1.5 1.5 0 0 0-1.5-1.5h-10a1.5 1.5 0 0 0-1.5 1.5V20H20v-4a5 5 0 0 1 5-5z"/><rect x="5" y="20" width="54" height="33" rx="5"/></g><g fill="none" stroke="#000" stroke-width="5" stroke-linecap="butt" stroke-linejoin="miter"><path d="M5 35H16M35 35H59 M17.5 35l5 5 16-12.5"/></g></mask></defs><rect width="64" height="64" fill="#FFFFFF" mask="url(#a)"/></svg>
