<svg xmlns="http://www.w3.org/2000/svg" viewBox="0 0 64 64" width="64" height="64" role="img" aria-label="Lernvo"><rect width="64" height="64" rx="14" fill="#0E1116"/><g transform="translate(8.48 8.48) scale(0.735)"><defs><mask id="c"><rect width="64" height="64" fill="#000"/><g fill="#fff"><path d="M25 11h14a5 5 0 0 1 5 5v4h-5.5v-2.5a1.5 1.5 0 0 0-1.5-1.5h-10a1.5 1.5 0 0 0-1.5 1.5V20H20v-4a5 5 0 0 1 5-5z"/><rect x="5" y="20" width="54" height="33" rx="5"/></g><g fill="none" stroke="#000" stroke-width="6.4" stroke-linecap="butt" stroke-linejoin="miter"><path d="M18 36.5l7.5 7.5L47 28"/></g></mask></defs><rect width="64" height="64" fill="#F5B700" mask="url(#c)"/></g></svg>
